<?xml version="1.0" encoding="UTF-8"?>
<svg id="Layer_1" data-name="Layer 1" xmlns="http://www.w3.org/2000/svg" xmlns:xlink="http://www.w3.org/1999/xlink" version="1.1" viewBox="0 0 810.48 808.03">
  <defs>
    <style>
      .cls-1 {
        fill: url(#linear-gradient);
      }

      .cls-1, .cls-2, .cls-3, .cls-4 {
        stroke-width: 0px;
      }

      .cls-5 {
        font-size: 67.03px;
      }

      .cls-5, .cls-6 {
        fill: #fff;
        font-family: Montserrat-Black, Montserrat;
        font-weight: 800;
      }

      .cls-7 {
        opacity: .34;
      }

      .cls-2 {
        fill: url(#linear-gradient-4);
      }

      .cls-3 {
        fill: url(#linear-gradient-2);
      }

      .cls-4 {
        fill: url(#linear-gradient-3);
      }

      .cls-6 {
        font-size: 66.27px;
      }
    </style>
    <linearGradient id="linear-gradient" x1="238.08" y1="214.53" x2="479.9" y2="214.53" gradientTransform="translate(321.49 774.17) rotate(-45) scale(1 -1)" gradientUnits="userSpaceOnUse">
      <stop offset="0" stop-color="#ff0d00"/>
      <stop offset="1" stop-color="#d45100"/>
    </linearGradient>
    <linearGradient id="linear-gradient-2" x1="136.94" y1="314.61" x2="378.52" y2="314.61" gradientTransform="translate(321.49 774.17) rotate(-45) scale(1 -1)" gradientUnits="userSpaceOnUse">
      <stop offset="0" stop-color="#fff"/>
      <stop offset="1" stop-color="#eff0f2"/>
    </linearGradient>
    <linearGradient id="linear-gradient-3" x1="137.92" y1="356.98" x2="216.34" y2="356.98" xlink:href="#linear-gradient"/>
    <linearGradient id="linear-gradient-4" x1="105.12" y1="389.44" x2="183.46" y2="389.44" xlink:href="#linear-gradient-2"/>
  </defs>
  <g class="cls-7">
    <path class="cls-1" d="M528.2,429.03c-25.42,44.83-77.95,68.8-127.98,58.4-52.18-10.84-90.49-52.7-96.48-104.96-1.69-14.81-.48-29.24,3.11-44.36,25.25,24.95,49.76,49.34,74.44,73.56,18.06,17.73,44.1,22.38,66.61,12.23,22.81-10.3,36.9-32.69,35.84-57.55-.71-16.47-7.49-30.29-19.17-41.91-23.61-23.51-47.11-47.14-70.64-70.73-10.22-10.23-10.27-15.93-.22-26.07,6.36-6.42,12.7-12.87,19.19-19.16,7.23-7.01,14.02-7.25,20.99-.29,26.34,26.28,53.08,52.16,78.61,79.19,35.9,38,41.77,95.65,15.68,141.64h0Z"/>
    <path class="cls-3" d="M397.66,400.27c-16.13-16.09-31.63-31.56-47.13-47.04-8.77-8.76-17.48-17.58-26.31-26.29-24.44-24.07-61.29-24.13-85.55-.2-23.3,22.99-23.46,61.03.09,85.07,23.86,24.36,48.11,48.32,72.19,72.46,10.13,10.16,10.17,16.03.24,26.02-6.37,6.42-12.58,12.99-19.08,19.27-7.47,7.21-14.19,7.16-21.56-.19-25.24-25.17-50.68-50.14-75.49-75.72-35.47-36.58-44.31-90.28-23.02-135.61,21.51-45.8,67.65-72.77,118.78-69.4,73.68,4.83,127.34,80.24,106.84,151.63Z"/>
  </g>
  <path class="cls-4" d="M228.22,416.08c-8.24,14.54-25.28,22.31-41.51,18.94-16.92-3.52-29.35-17.09-31.29-34.04-.55-4.8-.16-9.48,1.01-14.38,8.19,8.09,16.14,16,24.14,23.86,5.86,5.75,14.3,7.26,21.6,3.96,7.4-3.34,11.97-10.6,11.62-18.66-.23-5.34-2.43-9.82-6.22-13.59-7.66-7.62-15.28-15.29-22.91-22.94-3.31-3.32-3.33-5.17-.07-8.45,2.06-2.08,4.12-4.17,6.22-6.21,2.34-2.27,4.55-2.35,6.81-.1,8.54,8.52,17.21,16.92,25.49,25.68,11.64,12.32,13.55,31.02,5.09,45.93h0Z"/>
  <path class="cls-2" d="M185.89,406.76c-5.23-5.22-10.26-10.24-15.28-15.25-2.84-2.84-5.67-5.7-8.53-8.52-7.93-7.8-19.88-7.83-27.75-.07-7.56,7.45-7.61,19.79.03,27.59,7.74,7.9,15.6,15.67,23.41,23.5,3.29,3.29,3.3,5.2.08,8.44-2.07,2.08-4.08,4.21-6.19,6.25-2.42,2.34-4.6,2.32-6.99-.06-8.18-8.16-16.43-16.26-24.48-24.56-11.5-11.86-14.37-29.28-7.47-43.98,6.98-14.85,21.94-23.6,38.52-22.51,23.9,1.57,41.3,26.02,34.65,49.17Z"/>
  <text class="cls-6" transform="translate(255.9 391.33)"><tspan x="0" y="0">NEW MEDIA</tspan></text>
  <text class="cls-5" transform="translate(256.97 452.6)"><tspan x="0" y="0">MARKETING</tspan></text>
</svg>