<?xml version="1.0" encoding="UTF-8"?>
<svg id="Layer_1" data-name="Layer 1" xmlns="http://www.w3.org/2000/svg" xmlns:xlink="http://www.w3.org/1999/xlink" viewBox="0 0 905.7 1915.27">
  <defs>
    <style>
      .cls-1 {
        fill: url(#linear-gradient);
      }

      .cls-1, .cls-2, .cls-3, .cls-4 {
        stroke-width: 0px;
      }

      .cls-2 {
        fill: #1a1a1a;
      }

      .cls-3 {
        fill: url(#linear-gradient-2);
      }

      .cls-4 {
        fill: url(#linear-gradient-3);
      }
    </style>
    <linearGradient id="linear-gradient" x1="286.61" y1="522.3" x2="858.08" y2="522.3" gradientUnits="userSpaceOnUse">
      <stop offset="0" stop-color="#ff0d00"/>
      <stop offset="1" stop-color="#d45100"/>
    </linearGradient>
    <linearGradient id="linear-gradient-2" x1="47.6" y1="285.78" x2="618.49" y2="285.78" gradientUnits="userSpaceOnUse">
      <stop offset="0" stop-color="#fff"/>
      <stop offset="1" stop-color="#eff0f2"/>
    </linearGradient>
    <linearGradient id="linear-gradient-3" x1="267.09" y1="1595.98" x2="905.7" y2="1595.98" xlink:href="#linear-gradient"/>
  </defs>
  <g>
    <path class="cls-1" d="M646.13,797.95c-117.4,32.44-245.22-15.29-311.45-116.28-69.07-105.31-63.16-239.28,14.17-336.6,21.91-27.57,48.05-49.67,79.31-68.93.49,83.89.71,165.6,1.47,247.32.56,59.81,36.3,111.1,90.88,131.74,55.33,20.91,116.29,7.04,156.06-36.28,26.33-28.71,38.1-63.12,38-102.06-.18-78.74.04-157.49.14-236.23.03-34.17,9.46-43.77,43.2-43.92,21.37-.1,42.73-.28,64.09.06,23.79.36,35.54,11.31,35.57,34.59.1,87.92,1.54,175.86-.97,263.69-3.51,123.49-90.04,229.64-210.48,262.9Z"/>
    <path class="cls-3" d="M476.06,531.75c-.06-53.84-.11-105.59-.15-157.35-.01-29.29.18-58.59-.04-87.89-.63-81.06-62.09-142.74-142.63-143.3-77.34-.52-141.19,62.77-142,142.31-.84,80.57-.34,161.14-.45,241.71-.04,33.9-9.79,43.77-43.07,43.88-21.37.07-42.73.7-64.09.31-24.53-.43-35.67-11.74-35.7-36.34-.11-84.24-.9-168.47.39-252.68,1.85-120.39,76.81-224.91,188.12-265.08,112.49-40.59,234.64-8.55,314.46,82.52,115.05,131.2,78.71,346.87-74.85,431.91Z"/>
  </g>
  <g>
    <path class="cls-4" d="M668.86,1904.01c-131.19,36.25-274.03-17.09-348.04-129.94-77.18-117.68-70.58-267.39,15.84-376.14,24.49-30.8,53.7-55.51,88.63-77.03.55,93.74.8,185.06,1.64,276.38.63,66.83,40.56,124.16,101.56,147.22,61.83,23.36,129.96,7.87,174.4-40.55,29.43-32.09,42.58-70.54,42.47-114.05-.2-87.99.05-175.99.16-263.98.03-38.18,10.57-48.91,48.27-49.08,23.88-.11,47.75-.31,71.62.06,26.58.41,39.72,12.63,39.75,38.65.11,98.25,1.72,196.52-1.08,294.67-3.92,137.99-100.62,256.61-235.21,293.78Z"/>
    <path class="cls-2" d="M478.8,1606.54c-.06-60.17-.13-117.99-.17-175.83-.02-32.73.2-65.47-.05-98.21-.7-90.58-69.38-159.51-159.38-160.14-86.42-.58-157.77,70.15-158.68,159.02-.94,90.04-.38,180.07-.5,270.11-.05,37.89-10.95,48.91-48.13,49.04-23.88.08-47.75.78-71.62.34-27.41-.48-39.86-13.12-39.89-40.61-.13-94.13-1-188.27.44-282.37,2.06-134.54,85.83-251.33,210.22-296.22,125.7-45.36,262.21-9.55,351.4,92.21,128.56,146.61,87.96,387.62-83.64,482.66Z"/>
  </g>
</svg>