<?xml version="1.0" encoding="UTF-8"?>
<svg id="Layer_1" data-name="Layer 1" xmlns="http://www.w3.org/2000/svg" xmlns:xlink="http://www.w3.org/1999/xlink" viewBox="0 0 810.48 808.03">
  <defs>
    <style>
      .cls-1 {
        fill: url(#linear-gradient);
      }

      .cls-1, .cls-2 {
        stroke-width: 0px;
      }

      .cls-2 {
        fill: url(#linear-gradient-2);
      }
    </style>
    <linearGradient id="linear-gradient" x1="239.01" y1="522.3" x2="810.48" y2="522.3" gradientUnits="userSpaceOnUse">
      <stop offset="0" stop-color="#ff0d00"/>
      <stop offset="1" stop-color="#d45100"/>
    </linearGradient>
    <linearGradient id="linear-gradient-2" x1="0" y1="285.78" x2="570.89" y2="285.78" gradientUnits="userSpaceOnUse">
      <stop offset="0" stop-color="#fff"/>
      <stop offset="1" stop-color="#eff0f2"/>
    </linearGradient>
  </defs>
  <path class="cls-1" d="M598.54,797.95c-117.4,32.44-245.22-15.29-311.45-116.28-69.07-105.31-63.16-239.28,14.17-336.6,21.91-27.57,48.05-49.67,79.31-68.93.49,83.89.71,165.6,1.47,247.32.56,59.81,36.3,111.1,90.88,131.74,55.33,20.91,116.29,7.04,156.06-36.28,26.33-28.71,38.1-63.12,38-102.06-.18-78.74.04-157.49.14-236.23.03-34.17,9.46-43.77,43.2-43.92,21.37-.1,42.73-.28,64.09.06,23.79.36,35.54,11.31,35.57,34.59.1,87.92,1.54,175.86-.97,263.69-3.51,123.49-90.04,229.64-210.48,262.9Z"/>
  <path class="cls-2" d="M428.46,531.75c-.06-53.84-.11-105.59-.15-157.35-.01-29.29.18-58.59-.04-87.89-.63-81.06-62.09-142.74-142.63-143.3-77.34-.52-141.19,62.77-142,142.31-.84,80.57-.34,161.14-.45,241.71-.04,33.9-9.79,43.77-43.07,43.88-21.37.07-42.73.7-64.09.31-24.53-.43-35.67-11.74-35.7-36.34-.11-84.24-.9-168.47.39-252.68C2.58,162.01,77.54,57.5,188.85,17.32c112.49-40.59,234.64-8.55,314.46,82.52,115.05,131.2,78.71,346.87-74.85,431.91Z"/>
</svg>